<svg xmlns="http://www.w3.org/2000/svg" width="24" height="24" viewBox="0 0 24 24">
  <path d="M12 2c-6.627 0-12 7-12 7s5.373 7 12 7 12-7 12-7-5.373-7-12-7zm0 12c-2.761 0-5-2.239-5-5s2.239-5 5-5 5 2.239 5 5-2.239 5-5 5zm0-7c-2.209 0-4 1.791-4 4s1.791 4 4 4 4-1.791 4-4-1.791-4-4-4zm0 2c-.553 0-1 .447-1 1s.447 1 1 1 1-.447 1-1-.447-1-1-1zm-5.77 3.219c-.195.195-.451.293-.708.293-.256 0-.513-.098-.708-.293-.391-.391-.391-1.023 0-1.414l2-2c.391-.391 1.023-.391 1.414 0 .391.391.391 1.023 0 1.414l-2 2z"/>
</svg>

